<?xml version="1.0" encoding="utf-8"?>
<!-- Generator: Adobe Illustrator 16.0.4, SVG Export Plug-In . SVG Version: 6.00 Build 0)  -->
<!DOCTYPE svg PUBLIC "-//W3C//DTD SVG 1.1//EN" "http://www.w3.org/Graphics/SVG/1.1/DTD/svg11.dtd">
<svg version="1.1" id="Layer_1" xmlns="http://www.w3.org/2000/svg" xmlns:xlink="http://www.w3.org/1999/xlink" x="0px" y="0px"
	 width="2500px" height="2500px" viewBox="0 0 2500 2500" enable-background="new 0 0 2500 2500" xml:space="preserve">
<g>
	<path fill="#FFFFFF" d="M0,0h2500v2500H0V0z"/>
	<path fill="#FFFFFF" d="M325.048,1397.518h48.611v-13.371H259.396v13.371h48.624v105.756h17.029V1397.518z M459.96,1503.273h17.017
		v-48.61c0-27.963-17.017-40.129-40.116-40.129c-15.797,0-29.182,6.083-36.471,18.235v-48.637h-17.003v119.141h17.016v-40.103
		c0-26.743,17.017-37.69,34.033-37.69c15.797,0,25.524,8.509,25.524,30.401V1503.273L459.96,1503.273z M513.447,1464.391
		c1.219,17.003,12.165,30.375,31.607,30.375c14.591,0,24.318-4.864,27.963-17.004h18.223c-3.645,20.648-24.306,27.938-44.979,27.938
		c-31.607,0-49.83-17.017-49.83-43.747c0-30.401,19.455-47.418,49.83-47.418c30.388,0,46.198,15.811,46.198,44.992v4.864H513.447
		L513.447,1464.391z M546.273,1425.48c-17.017,0-29.169,8.509-31.607,27.963h60.776
		C575.442,1433.989,560.864,1425.48,546.273,1425.48z M1234.293,1430.345c2.439,0,6.084,0,12.153,1.219v-14.591
		c-2.425-1.219-4.864-1.219-9.728-1.219c-15.811,0-26.743,8.508-32.826,19.454l-1.219-17.017h-15.798
		c0,6.083,1.22,12.166,1.22,19.455v65.64h15.797v-41.321C1203.893,1441.291,1213.619,1430.345,1234.293,1430.345z
		 M1738.752,1430.345c3.645,0,7.289,0,13.373,1.219v-14.591c-2.439-1.219-4.864-1.219-10.947-1.219
		c-15.81,0-25.537,8.508-32.826,19.454v-17.017h-15.797v85.095h17.016v-41.321
		C1709.57,1441.291,1719.298,1430.345,1738.752,1430.345z M932.824,1491.121l-26.743-72.93h-19.442l34.033,85.082h23.099
		l27.95-71.71l30.389,71.71h21.879l34.046-85.082h-18.248l-26.73,72.93l-29.183-72.93h-21.88L932.824,1491.121L932.824,1491.121z
		 M715.23,1457.102H678.76v46.185h-17.017v-119.14h51.049c36.472-1.22,48.624,14.591,48.624,35.265
		C761.429,1441.291,746.838,1457.102,715.23,1457.102z M712.792,1396.299H678.76v47.418h35.252c21.88,0,29.182-8.509,29.182-24.318
		C743.193,1406.026,735.904,1396.299,712.792,1396.299L712.792,1396.299z M823.425,1505.712c-34.033,0-52.269-15.811-52.269-44.966
		c0-27.963,18.235-46.199,52.269-46.199c36.471,0,53.487,17.017,53.487,46.199C876.912,1489.901,858.676,1505.712,823.425,1505.712z
		 M823.425,1425.48c-23.1,0-35.252,14.592-35.252,35.266c0,18.209,12.152,34.02,35.252,34.02c24.317,0,36.471-15.811,36.471-34.02
		C859.883,1440.072,847.729,1425.48,823.425,1425.48L823.425,1425.48z M1083.546,1464.391c2.438,17.003,12.166,30.375,31.62,30.375
		c14.592,0,25.525-4.864,29.169-17.004h17.017c-3.645,20.648-24.318,27.938-44.979,27.938c-31.606,0-48.623-17.017-48.623-43.747
		c0-30.401,18.223-47.418,48.623-47.418c30.401,0,47.405,15.811,47.405,44.992v4.864H1083.546L1083.546,1464.391z M1116.372,1425.48
		c-17.016,0-29.182,8.509-31.606,27.963h60.775C1145.555,1433.989,1130.964,1425.48,1116.372,1425.48z M1777.648,1464.391
		c1.22,17.003,12.166,30.375,31.621,30.375c14.591,0,24.318-4.864,27.963-17.004h18.209c-3.618,20.648-24.292,27.938-46.186,27.938
		c-30.4,0-48.61-17.017-48.61-43.747c0-30.401,19.429-47.418,49.83-47.418s46.186,15.811,46.186,44.992v4.864H1777.648
		L1777.648,1464.391z M1810.476,1425.48c-17.017,0-30.401,8.509-31.62,27.963h60.802
		C1839.657,1433.989,1825.066,1425.48,1810.476,1425.48z M1465.26,1392.654c3.645,0,9.727,1.219,18.209,2.438v-12.166
		c-6.057-1.219-13.346-1.219-21.867-1.219c-24.318,0-31.62,12.165-31.62,32.826v3.645h-21.894v10.946h21.894v74.148h15.81v-74.148
		h35.266v-10.946h-35.266v-7.289C1445.805,1397.518,1451.875,1392.654,1465.26,1392.654z M1347.338,1505.712
		c-35.265,0-53.475-15.811-53.475-44.966c0-27.963,19.43-46.199,53.475-46.199c35.266,0,53.475,17.017,53.475,46.199
		C1400.812,1489.901,1381.384,1505.712,1347.338,1505.712z M1347.338,1425.48c-23.099,0-35.265,14.592-35.265,35.266
		c0,18.209,12.166,34.02,35.265,34.02c23.1,0,35.266-15.811,35.266-34.02C1382.604,1440.072,1371.656,1425.48,1347.338,1425.48z
		 M2074.254,1435.208c-4.863-13.372-18.235-20.674-30.4-20.674c-12.14,0-24.293,6.083-31.595,18.235l-1.219-14.591h-15.811
		c0,6.083,1.22,12.166,1.22,19.455v65.64h15.81v-41.321c0-25.538,14.591-36.472,27.937-36.472c13.373,0,20.674,9.728,20.674,34.046
		v43.747h17.017v-41.321c0-30.401,18.235-36.472,26.743-36.472c17.017,0,21.894,12.166,21.894,34.046v43.747h15.784v-49.83
		c0-27.963-14.591-38.909-35.238-38.909C2090.052,1414.534,2077.898,1426.7,2074.254,1435.208L2074.254,1435.208z
		 M2206.754,1505.712c31.594,0,47.392-8.508,47.392-26.743c0-13.347-8.509-19.43-24.318-21.867l-27.938-6.083
		c-12.165-2.438-18.235-4.864-18.235-12.166c0-8.508,9.728-13.372,25.537-13.372c12.141,0,23.073,3.645,24.293,14.592h17.016
		c0-20.674-23.099-25.538-41.321-25.538c-21.894,0-41.348,7.289-41.348,26.744c0,13.372,9.728,19.454,23.099,21.893l26.744,4.838
		c8.482,2.438,18.21,4.89,18.21,12.166c0,9.728-9.728,14.591-27.963,14.591c-14.565,0-25.512-4.863-27.938-15.811h-17.017
		C2164.199,1498.41,2182.436,1505.712,2206.754,1505.712L2206.754,1505.712z M1601.39,1503.273h-51.049v-119.141h51.049
		c46.198,0,66.847,20.674,66.847,59.584C1668.236,1481.394,1643.943,1503.273,1601.39,1503.273L1601.39,1503.273z
		 M1596.526,1396.299h-27.937v93.603h30.375c41.348,0,51.074-21.893,51.074-46.185
		C1650.026,1412.109,1639.08,1396.299,1596.526,1396.299L1596.526,1396.299z M1951.47,1503.273h15.81v-58.338
		c0-20.674-17.016-30.401-41.321-30.401c-18.235,0-40.128,4.864-42.554,25.538h18.235c1.22-8.509,9.728-14.592,24.318-14.592
		c14.565,0,24.292,6.083,24.292,20.674v3.645h-9.727c-19.43,0-63.202-1.219-63.202,27.963c0,17.004,14.591,27.938,36.472,27.938
		c17.016,0,27.963-1.22,36.457-14.592L1951.47,1503.273L1951.47,1503.273z M1950.25,1465.609c0,20.647-10.92,29.156-31.594,29.156
		c-17.017,0-23.1-7.289-23.1-17.004c0-18.235,34.046-17.016,46.199-17.016h8.481v4.863H1950.25L1950.25,1465.609z"/>
	<path fill="#FFFFFF" d="M1950.25,1282.062v-36.472l37.691-3.645c12.165-2.438,17.016-13.371,19.454-15.81l91.165-149.516
		c7.288-10.946,0-21.88-9.728-23.099l-47.418-4.864v-37.69h207.866c12.166,0,19.455,8.509,24.318,15.798l121.54,185.986
		c9.728,14.591,17.017,26.743,29.182,27.963l38.909,3.645v37.69h-234.623v-36.472l29.183-3.645
		c14.591-1.219,26.743-8.508,14.591-25.524l-10.946-17.016h-166.532l-13.371,20.66c-7.289,12.166,0,20.661,12.165,21.88
		l30.376,3.645v36.472h-173.821L1950.25,1282.062L1950.25,1282.062z M2124.071,1150.769h105.756l-53.475-82.656L2124.071,1150.769z
		 M1794.665,1010.967h-267.423v37.69l32.826,2.438c13.371,2.426,18.235,10.934,18.235,23.086v145.871
		c0,10.946-4.864,20.661-15.811,21.88l-35.265,4.864v35.265h267.424c124.004,0,177.479-59.57,177.479-139.802
		C1972.144,1071.743,1918.669,1010.967,1794.665,1010.967z M1753.356,1229.78h-69.31v-166.532h69.31
		c66.847,0,93.603,14.592,93.603,83.876C1846.946,1215.189,1820.203,1229.78,1753.356,1229.78L1753.356,1229.78z M69.764,1282.062
		h217.581v-36.472l-37.69-3.645c-8.508-1.219-17.017-6.069-17.017-24.318v-43.76H400.39v41.335c0,12.166-2.438,24.318-17.017,25.524
		l-37.69,3.645v37.69h217.581v-37.69l-38.896-3.645c-7.289-1.219-15.797-7.289-15.797-21.88v-141.021
		c0-14.591,4.863-24.318,17.017-25.524l37.677-3.645v-37.69H345.696v36.472l37.69,4.863c13.372,1.22,17.016,12.166,17.016,25.524
		v41.335H232.651v-42.554c0-15.798,7.289-23.1,18.236-24.318l36.471-3.645v-37.69H70.983v37.69l36.471,3.645
		c13.372,1.219,18.235,12.165,17.016,25.524v137.362c0,15.811-3.645,25.524-18.235,26.744l-36.471,3.645V1282.062L69.764,1282.062z
		 M573.018,1145.904c0-85.094,69.284-144.651,222.444-144.651c151.953,0,221.238,59.558,221.238,144.651
		c0,86.314-69.285,145.858-221.238,145.858C642.302,1291.763,573.018,1232.205,573.018,1145.904z M795.462,1052.302
		c-61.996,0-97.247,23.099-97.247,93.603c0,71.723,35.251,94.822,97.247,94.822c60.789,0,96.028-23.1,96.028-94.822
		C891.49,1075.401,856.251,1052.302,795.462,1052.302z M1028.853,1282.062h172.614v-36.472l-36.471-3.645
		c-10.934-1.219-17.016-9.727-17.016-23.099v-137.376l143.458,189.645c4.864,7.275,14.591,10.946,23.073,10.946h136.156V1076.62
		c0-9.728,2.438-23.099,15.811-24.318l37.664-3.645v-37.69h-172.614v36.472l37.69,4.863c13.371,1.22,15.81,13.372,15.81,25.524
		v133.719l-142.227-188.412c-6.083-7.289-13.372-12.166-23.099-12.166h-190.851v37.69l35.252,3.645
		c13.372,2.438,18.235,8.508,18.235,25.524v137.363c0,17.016-4.863,24.318-18.235,26.743l-35.252,3.645V1282.062z"/>
</g>
</svg>
